# xmcd
#
# Track frame offsets:
#	150
#	32470
#	58090
#	88365
#	107197
#	138408
#	174050
#	205461
#	234426
#	268245
#
# Disc length: 4189 seconds
#
# Revision: 0
# Processed by: cddbd v1.5.2PL0 Copyright (c) Steve Scherf et al.
# Submitted via: EasyCDDAExtractor 2010.6.0.0
#
DISCID=8c105b0a
DTITLE=Various Artist - Pete Waterman Presents The Hit Factory
DYEAR=2012
DGENRE=Pop
TTITLE0=Princess - Say I'm Your Number One (Princess To A King Mix)
TTITLE1=Mondo Kane - New York Afternoon (Extended Version)
TTITLE2=The Three Degrees - The Heaven I Need  (Extended Version)
TTITLE3=Morgan McVey feat. Neneh Cherry - Looking Good Diving (With The Wild B
TTITLE3=unch)
TTITLE4=Mandy Smith - I Just Can't Wait (Alternative 12'' Mix)
TTITLE5=Precious Wilson - Only The Strong Survive (Extended Version) 
TTITLE6=Sybil - When I'm Good And Ready (Original 12'' Mix)
TTITLE7=Jason Donovan - Too Many Broken Hearts (Party Hearty Mix)
TTITLE8=Kylie Minogue - What Do I Have To Do (Billy The Fish Mix)
TTITLE9=Dead Or Alive - You Spin Me Round (Like A Record) (Buzzing Bees Mix)
EXTD=
EXTT0=
EXTT1=
EXTT2=
EXTT3=
EXTT4=
EXTT5=
EXTT6=
EXTT7=
EXTT8=
EXTT9=
PLAYORDER=
